<svg width="83" height="80" viewBox="0 0 83 80" fill="none" xmlns="http://www.w3.org/2000/svg">
<path d="M41.1885 79.8759C63.9363 79.8759 82.377 61.9951 82.377 39.938C82.377 17.8808 63.9363 0 41.1885 0C18.4407 0 0 17.8808 0 39.938C0 61.9951 18.4407 79.8759 41.1885 79.8759Z" fill="#2E5871"/>
<path d="M61.614 64.6645C58.9913 59.7977 42.1282 56.7436 42.1282 56.7436C42.1282 56.7436 25.2652 59.7977 22.6424 64.6645C20.7037 71.4185 19.082 80 19.082 80H42.1282H65.1744C65.1744 80 64.0788 70.7986 61.614 64.6645Z" fill="#F1C9A5"/>
<path d="M42.1282 56.7436C42.1282 56.7436 58.9912 59.7977 61.614 64.6645C64.0794 70.7986 65.1743 80 65.1743 80H42.1282V56.7436Z" fill="#E4B692"/>
<path d="M46.719 46.8491H37.5376V61.9107H46.719V46.8491Z" fill="#F1C9A5"/>
<path d="M46.7189 46.8491H42.1282V61.9107H46.7189V46.8491Z" fill="#E4B692"/>
<path opacity="0.1" d="M37.5376 53.8284C38.3633 56.1518 41.6955 57.4836 44.1429 57.4836C45.0282 57.4836 45.8893 57.3381 46.719 57.072V46.8491H37.5376V53.8284Z" fill="#DDAC8C"/>
<path d="M61.6141 64.6645C60.0818 61.8225 53.6986 59.6004 48.6492 58.2422C48.4519 61.6088 45.6127 64.281 42.1283 64.281C38.6444 64.281 35.8052 61.6088 35.6073 58.2422C30.558 59.6004 24.1742 61.8225 22.6419 64.6645C20.7032 71.4184 19.0815 80 19.0815 80H42.1277H65.1739C65.1744 80 64.0789 70.7986 61.6141 64.6645Z" fill="white"/>
<path d="M53.9322 37.3452C53.9322 27.9377 48.6474 22.5882 42.1281 22.5882C35.6089 22.5882 30.324 27.9377 30.324 37.3452C30.324 41.2864 31.5539 50.0128 33.6539 51.7914C35.0957 53.0471 39.8021 55.1981 42.1039 55.1981H42.1045C42.1124 55.1981 42.1202 55.197 42.1287 55.197C42.1365 55.197 42.1444 55.1981 42.1517 55.1981H42.1528C44.4552 55.1981 49.1617 53.0476 50.6029 51.7914C52.7861 49.5313 53.9322 40.9629 53.9322 37.3452Z" fill="#F1C9A5"/>
<path d="M42.1287 55.197C42.1366 55.197 42.1445 55.1981 42.1518 55.1981H42.1529C44.4553 55.1981 49.1618 53.0476 50.603 51.7914C52.7862 49.5307 53.9323 40.9629 53.9323 37.3452C53.9323 27.9377 48.6474 22.5882 42.1282 22.5882L42.1287 55.197Z" fill="#E4B692"/>
<path d="M52.1356 43.8688C49.9957 43.6495 48.5511 41.3894 48.9136 38.824C49.2717 36.2564 51.2981 34.35 53.4391 34.5682C55.5779 34.7864 57.0203 37.0454 56.6594 39.613C56.3002 42.1811 54.2755 44.0859 52.1356 43.8688Z" fill="#E4B692"/>
<path d="M27.6812 39.6136C27.3198 37.046 28.7627 34.787 30.9004 34.5688C33.042 34.35 35.0689 36.2564 35.4281 38.8246C35.7895 41.3899 34.3432 43.6501 32.205 43.8694C30.0645 44.0859 28.0398 42.1812 27.6812 39.6136Z" fill="#F1C9A5"/>
<path d="M22.6424 64.6645C20.7037 71.4185 19.082 80 19.082 80H35.8197C32.9789 67.7103 32.8693 59.05 32.8693 59.0335C28.4736 60.3977 23.9066 62.3195 22.6424 64.6645Z" fill="#FB6020"/>
<path d="M61.6139 64.6645C64.239 71.019 65.1743 80 65.1743 80H48.436C51.2769 67.7103 51.3865 59.05 51.3865 59.0335C55.7827 60.3977 60.3498 62.3195 61.6139 64.6645Z" fill="#FB6020"/>
<path d="M31.0464 43.6088C31.0464 43.6088 32.7704 49.301 34.6371 50.2674C35.4988 50.2674 36.1452 50.2674 36.1452 50.2674L38.0114 47.675L42.1041 46.5571V55.1987H36.7905L31.4775 50.5219L31.0464 43.6088Z" fill="#915F2C"/>
<path d="M53.1858 43.6088C53.1858 43.6088 51.4619 49.301 49.5951 50.2674C48.7334 50.2674 48.087 50.2674 48.087 50.2674L46.2208 47.675L42.1282 46.5571V55.1987H47.4417L52.7547 50.5219L53.1858 43.6088Z" fill="#915F2C"/>
<path d="M44.0213 49.4029C44.0213 49.4029 43.7403 48.1764 42.1006 48.1764C40.6015 48.1764 40.1799 49.4029 40.1799 49.4029H44.0213Z" fill="white"/>
<path d="M30.3425 34.5953C30.3425 34.5953 31.9069 34.9143 32.9175 36.0658C32.7393 34.0509 32.3442 27.3575 34.8399 25.6782C37.3356 23.9993 38.5031 25.7503 42.1281 25.7503C42.1281 23.1117 42.1281 20.8565 42.1281 20.8565C42.1281 20.8565 37.7713 20.8565 36.2362 20.8565C34.7005 20.8565 29.8276 21.5761 29.8276 26.0859C29.8271 30.5962 30.3425 34.5953 30.3425 34.5953Z" fill="#915F2C"/>
<path d="M53.9133 34.5953C53.9133 34.5953 52.3489 34.9143 51.3383 36.0658C51.5165 34.0509 51.9116 27.3575 49.4159 25.6782C46.9207 23.9993 45.7527 25.7503 42.1277 25.7503C42.1277 23.1117 42.1277 20.8565 42.1277 20.8565C42.1277 20.8565 46.4845 20.8565 48.0196 20.8565C49.5553 20.8565 54.4282 21.5761 54.4282 26.0859C54.4287 30.5962 53.9133 34.5953 53.9133 34.5953Z" fill="#915F2C"/>
</svg>
