<svg width="128" height="128" viewBox="0 0 128 128" fill="none" xmlns="http://www.w3.org/2000/svg">
<g id="24 / basic / mic-no">
<path id="icon" fill-rule="evenodd" clip-rule="evenodd" d="M42.6669 50.2091L6.896 14.4381L14.4385 6.89568L121.105 113.562L113.563 121.105L90.1637 97.7058C84.2622 102.293 77.124 105.365 69.3336 106.336V112H85.3336V122.667H42.6669V112H58.6669V106.336C37.6199 103.712 21.3336 85.7579 21.3336 63.9999V53.3333H32.0002V63.9999C32.0002 81.673 46.3271 95.9999 64.0002 95.9999C70.9113 95.9999 77.3107 93.809 82.5417 90.0839L74.8374 82.3796C71.6613 84.2563 67.9566 85.3333 64.0002 85.3333C52.2182 85.3333 42.6669 75.782 42.6669 63.9999V50.2091ZM66.7631 74.3053C65.8819 74.5409 64.9558 74.6666 64.0002 74.6666C58.1092 74.6666 53.3336 69.891 53.3336 63.9999V60.8757L66.7631 74.3053ZM74.6669 26.6666V52.1906L85.3336 62.8572V26.6666C85.3336 14.8845 75.7823 5.33325 64.0002 5.33325C54.194 5.33325 45.9331 11.9497 43.4382 20.9619L53.3336 30.8572V26.6666C53.3336 20.7755 58.1092 15.9999 64.0002 15.9999C69.8913 15.9999 74.6669 20.7755 74.6669 26.6666ZM103.245 80.769L94.8842 72.4079C95.6119 69.7286 96.0002 66.9096 96.0002 63.9999V53.3333H106.667V63.9999C106.667 69.9531 105.448 75.6215 103.245 80.769Z" fill="black"/>
</g>
</svg>
