<svg width="128" height="128" viewBox="0 0 128 128" fill="none" xmlns="http://www.w3.org/2000/svg">
<g id="24 / basic / mic">
<path id="icon" fill-rule="evenodd" clip-rule="evenodd" d="M64.0002 5.3335C75.7822 5.3335 85.3335 14.8848 85.3335 26.6668V64.0002C85.3335 75.7822 75.7822 85.3335 64.0002 85.3335C52.2181 85.3335 42.6668 75.7822 42.6668 64.0002V26.6668C42.6668 14.8848 52.2181 5.3335 64.0002 5.3335ZM69.3335 106.337V112H85.3335V122.667H42.6668V112H58.6668V106.337C37.6198 103.712 21.3335 85.7581 21.3335 64.0002V53.3335H32.0002V64.0002C32.0002 81.6733 46.327 96.0002 64.0002 96.0002C81.6733 96.0002 96.0002 81.6733 96.0002 64.0002V53.3335H106.667V64.0002C106.667 85.7581 90.3805 103.712 69.3335 106.337ZM53.3335 26.6668C53.3335 20.7758 58.1091 16.0002 64.0002 16.0002C69.8912 16.0002 74.6668 20.7758 74.6668 26.6668V64.0002C74.6668 69.8912 69.8912 74.6668 64.0002 74.6668C58.1091 74.6668 53.3335 69.8912 53.3335 64.0002V26.6668Z" fill="black"/>
</g>
</svg>
